<?xml version="1.0" encoding="UTF-8" standalone="no"?>
<!DOCTYPE svg PUBLIC "-//W3C//DTD SVG 1.1//EN"
 "http://www.w3.org/Graphics/SVG/1.1/DTD/svg11.dtd">
<!-- Generated by graphviz version 2.49.0 (20210829.0051)
 -->
<!-- Title: snakemake_dag Pages: 1 -->
<svg width="1667pt" height="2132pt"
 viewBox="0.00 0.00 1667.00 2132.00" xmlns="http://www.w3.org/2000/svg" xmlns:xlink="http://www.w3.org/1999/xlink">
<g id="graph0" class="graph" transform="scale(1 1) rotate(0) translate(4 2128)">
<title>snakemake_dag</title>
<polygon fill="white" stroke="transparent" points="-4,4 -4,-2128 1663,-2128 1663,4 -4,4"/>
<!-- 0 -->
<g id="node1" class="node">
<title>0</title>
<path fill="none" stroke="#d86e56" stroke-width="2" d="M1039,-36C1039,-36 1009,-36 1009,-36 1003,-36 997,-30 997,-24 997,-24 997,-12 997,-12 997,-6 1003,0 1009,0 1009,0 1039,0 1039,0 1045,0 1051,-6 1051,-12 1051,-12 1051,-24 1051,-24 1051,-30 1045,-36 1039,-36"/>
<text text-anchor="middle" x="1024" y="-15.5" font-family="sans" font-size="10.00">all</text>
</g>
<!-- 1 -->
<g id="node2" class="node">
<title>1</title>
<path fill="none" stroke="#c6d856" stroke-width="2" d="M363,-1908C363,-1908 329,-1908 329,-1908 323,-1908 317,-1902 317,-1896 317,-1896 317,-1884 317,-1884 317,-1878 323,-1872 329,-1872 329,-1872 363,-1872 363,-1872 369,-1872 375,-1878 375,-1884 375,-1884 375,-1896 375,-1896 375,-1902 369,-1908 363,-1908"/>
<text text-anchor="middle" x="346" y="-1887.5" font-family="sans" font-size="10.00">fastqc_1</text>
</g>
<!-- 1&#45;&gt;0 -->
<g id="edge6" class="edge">
<title>1&#45;&gt;0</title>
<path fill="none" stroke="grey" stroke-width="2" d="M316.8,-1883.56C233.38,-1867.18 0,-1815.26 0,-1747 0,-1747 0,-1747 0,-161 0,-105.68 36.64,-94.89 87,-72 169.91,-34.31 822.77,-22.03 986.74,-19.52"/>
<polygon fill="grey" stroke="grey" stroke-width="2" points="986.87,-23.02 996.82,-19.37 986.77,-16.02 986.87,-23.02"/>
</g>
<!-- 2 -->
<g id="node3" class="node">
<title>2</title>
<path fill="none" stroke="#d85e56" stroke-width="2" d="M766,-2124C766,-2124 698,-2124 698,-2124 692,-2124 686,-2118 686,-2112 686,-2112 686,-2100 686,-2100 686,-2094 692,-2088 698,-2088 698,-2088 766,-2088 766,-2088 772,-2088 778,-2094 778,-2100 778,-2100 778,-2112 778,-2112 778,-2118 772,-2124 766,-2124"/>
<text text-anchor="middle" x="732" y="-2103.5" font-family="sans" font-size="10.00">irods_get_fastq</text>
</g>
<!-- 2&#45;&gt;1 -->
<g id="edge22" class="edge">
<title>2&#45;&gt;1</title>
<path fill="none" stroke="grey" stroke-width="2" d="M701.06,-2087.85C631.01,-2049.01 460.42,-1954.44 384.06,-1912.1"/>
<polygon fill="grey" stroke="grey" stroke-width="2" points="385.67,-1908.99 375.22,-1907.2 382.27,-1915.11 385.67,-1908.99"/>
</g>
<!-- 4 -->
<g id="node5" class="node">
<title>4</title>
<path fill="none" stroke="#567bd8" stroke-width="2" d="M795,-2052C795,-2052 765,-2052 765,-2052 759,-2052 753,-2046 753,-2040 753,-2040 753,-2028 753,-2028 753,-2022 759,-2016 765,-2016 765,-2016 795,-2016 795,-2016 801,-2016 807,-2022 807,-2028 807,-2028 807,-2040 807,-2040 807,-2046 801,-2052 795,-2052"/>
<text text-anchor="middle" x="780" y="-2031.5" font-family="sans" font-size="10.00">fastp</text>
</g>
<!-- 2&#45;&gt;4 -->
<g id="edge24" class="edge">
<title>2&#45;&gt;4</title>
<path fill="none" stroke="grey" stroke-width="2" d="M743.87,-2087.7C749.5,-2079.47 756.35,-2069.48 762.57,-2060.42"/>
<polygon fill="grey" stroke="grey" stroke-width="2" points="765.5,-2062.33 768.27,-2052.1 759.73,-2058.37 765.5,-2062.33"/>
</g>
<!-- 3 -->
<g id="node4" class="node">
<title>3</title>
<path fill="none" stroke="#bed856" stroke-width="2" d="M1487,-1836C1487,-1836 1453,-1836 1453,-1836 1447,-1836 1441,-1830 1441,-1824 1441,-1824 1441,-1812 1441,-1812 1441,-1806 1447,-1800 1453,-1800 1453,-1800 1487,-1800 1487,-1800 1493,-1800 1499,-1806 1499,-1812 1499,-1812 1499,-1824 1499,-1824 1499,-1830 1493,-1836 1487,-1836"/>
<text text-anchor="middle" x="1470" y="-1815.5" font-family="sans" font-size="10.00">fastqc_2</text>
</g>
<!-- 3&#45;&gt;0 -->
<g id="edge7" class="edge">
<title>3&#45;&gt;0</title>
<path fill="none" stroke="grey" stroke-width="2" d="M1499.12,-1809.71C1552.13,-1794.49 1659,-1754.01 1659,-1675 1659,-1675 1659,-1675 1659,-161 1659,-112.79 1638.66,-96.26 1597,-72 1505.63,-18.8 1173.61,-17.34 1061.37,-18.43"/>
<polygon fill="grey" stroke="grey" stroke-width="2" points="1061.17,-14.93 1051.21,-18.54 1061.25,-21.93 1061.17,-14.93"/>
</g>
<!-- 4&#45;&gt;3 -->
<g id="edge23" class="edge">
<title>4&#45;&gt;3</title>
<path fill="none" stroke="grey" stroke-width="2" d="M807.05,-2024.61C913.79,-1991.51 1306.03,-1869.85 1431.28,-1831.01"/>
<polygon fill="grey" stroke="grey" stroke-width="2" points="1432.35,-1834.34 1440.86,-1828.04 1430.27,-1827.66 1432.35,-1834.34"/>
</g>
<!-- 9 -->
<g id="node10" class="node">
<title>9</title>
<path fill="none" stroke="#56d8d8" stroke-width="2" d="M802,-1980C802,-1980 758,-1980 758,-1980 752,-1980 746,-1974 746,-1968 746,-1968 746,-1956 746,-1956 746,-1950 752,-1944 758,-1944 758,-1944 802,-1944 802,-1944 808,-1944 814,-1950 814,-1956 814,-1956 814,-1968 814,-1968 814,-1974 808,-1980 802,-1980"/>
<text text-anchor="middle" x="780" y="-1959.5" font-family="sans" font-size="10.00">bwa_mem</text>
</g>
<!-- 4&#45;&gt;9 -->
<g id="edge32" class="edge">
<title>4&#45;&gt;9</title>
<path fill="none" stroke="grey" stroke-width="2" d="M780,-2015.7C780,-2007.98 780,-1998.71 780,-1990.11"/>
<polygon fill="grey" stroke="grey" stroke-width="2" points="783.5,-1990.1 780,-1980.1 776.5,-1990.1 783.5,-1990.1"/>
</g>
<!-- 5 -->
<g id="node6" class="node">
<title>5</title>
<path fill="none" stroke="#d8b456" stroke-width="2" d="M1297.5,-1476C1297.5,-1476 1198.5,-1476 1198.5,-1476 1192.5,-1476 1186.5,-1470 1186.5,-1464 1186.5,-1464 1186.5,-1452 1186.5,-1452 1186.5,-1446 1192.5,-1440 1198.5,-1440 1198.5,-1440 1297.5,-1440 1297.5,-1440 1303.5,-1440 1309.5,-1446 1309.5,-1452 1309.5,-1452 1309.5,-1464 1309.5,-1464 1309.5,-1470 1303.5,-1476 1297.5,-1476"/>
<text text-anchor="middle" x="1248" y="-1455.5" font-family="sans" font-size="10.00">ngs_checkmate_fastq</text>
</g>
<!-- 5&#45;&gt;0 -->
<g id="edge2" class="edge">
<title>5&#45;&gt;0</title>
<path fill="none" stroke="grey" stroke-width="2" d="M1300.41,-1439.96C1376.09,-1413.75 1507,-1361.66 1507,-1315 1507,-1315 1507,-1315 1507,-161 1507,-116.87 1499.02,-97.49 1463,-72 1398.67,-26.47 1155.1,-19.88 1061.22,-19.06"/>
<polygon fill="grey" stroke="grey" stroke-width="2" points="1061.07,-15.55 1051.05,-18.98 1061.02,-22.55 1061.07,-15.55"/>
</g>
<!-- 6 -->
<g id="node7" class="node">
<title>6</title>
<path fill="none" stroke="#b6d856" stroke-width="2" d="M817,-1620C817,-1620 689,-1620 689,-1620 683,-1620 677,-1614 677,-1608 677,-1608 677,-1596 677,-1596 677,-1590 683,-1584 689,-1584 689,-1584 817,-1584 817,-1584 823,-1584 829,-1590 829,-1596 829,-1596 829,-1608 829,-1608 829,-1614 823,-1620 817,-1620"/>
<text text-anchor="middle" x="753" y="-1599.5" font-family="sans" font-size="10.00">reformat_bam_after_bqsr_1</text>
</g>
<!-- 6&#45;&gt;0 -->
<g id="edge8" class="edge">
<title>6&#45;&gt;0</title>
<path fill="none" stroke="grey" stroke-width="2" d="M829.27,-1596.51C1041.08,-1583.05 1621,-1538.88 1621,-1459 1621,-1459 1621,-1459 1621,-161 1621,-113.3 1601.97,-96.44 1561,-72 1476.43,-21.54 1168.56,-18.21 1061.22,-18.64"/>
<polygon fill="grey" stroke="grey" stroke-width="2" points="1061.16,-15.14 1051.18,-18.69 1061.2,-22.14 1061.16,-15.14"/>
</g>
<!-- 6&#45;&gt;5 -->
<g id="edge26" class="edge">
<title>6&#45;&gt;5</title>
<path fill="none" stroke="grey" stroke-width="2" d="M815.43,-1583.92C852.77,-1573.64 901.14,-1560.22 944,-1548 1025.7,-1524.71 1119.5,-1497.12 1181.04,-1478.9"/>
<polygon fill="grey" stroke="grey" stroke-width="2" points="1182.04,-1482.25 1190.64,-1476.06 1180.06,-1475.54 1182.04,-1482.25"/>
</g>
<!-- 12 -->
<g id="node13" class="node">
<title>12</title>
<path fill="none" stroke="#d8c356" stroke-width="2" d="M805,-1548C805,-1548 701,-1548 701,-1548 695,-1548 689,-1542 689,-1536 689,-1536 689,-1524 689,-1524 689,-1518 695,-1512 701,-1512 701,-1512 805,-1512 805,-1512 811,-1512 817,-1518 817,-1524 817,-1524 817,-1536 817,-1536 817,-1542 811,-1548 805,-1548"/>
<text text-anchor="middle" x="753" y="-1527.5" font-family="sans" font-size="10.00">index_bam_after_recal</text>
</g>
<!-- 6&#45;&gt;12 -->
<g id="edge36" class="edge">
<title>6&#45;&gt;12</title>
<path fill="none" stroke="grey" stroke-width="2" d="M753,-1583.7C753,-1575.98 753,-1566.71 753,-1558.11"/>
<polygon fill="grey" stroke="grey" stroke-width="2" points="756.5,-1558.1 753,-1548.1 749.5,-1558.1 756.5,-1558.1"/>
</g>
<!-- 13 -->
<g id="node14" class="node">
<title>13</title>
<path fill="none" stroke="#56c1d8" stroke-width="2" d="M1422.5,-1476C1422.5,-1476 1339.5,-1476 1339.5,-1476 1333.5,-1476 1327.5,-1470 1327.5,-1464 1327.5,-1464 1327.5,-1452 1327.5,-1452 1327.5,-1446 1333.5,-1440 1339.5,-1440 1339.5,-1440 1422.5,-1440 1422.5,-1440 1428.5,-1440 1434.5,-1446 1434.5,-1452 1434.5,-1452 1434.5,-1464 1434.5,-1464 1434.5,-1470 1428.5,-1476 1422.5,-1476"/>
<text text-anchor="middle" x="1381" y="-1455.5" font-family="sans" font-size="10.00">collect_hs_metrics</text>
</g>
<!-- 6&#45;&gt;13 -->
<g id="edge38" class="edge">
<title>6&#45;&gt;13</title>
<path fill="none" stroke="grey" stroke-width="2" d="M829.1,-1586.38C881.7,-1576.11 953.22,-1561.78 1016,-1548 1148.03,-1519.02 1183.27,-1510.69 1317.43,-1476.37"/>
<polygon fill="grey" stroke="grey" stroke-width="2" points="1318.44,-1479.73 1327.26,-1473.86 1316.71,-1472.94 1318.44,-1479.73"/>
</g>
<!-- 14 -->
<g id="node15" class="node">
<title>14</title>
<path fill="none" stroke="#d6d856" stroke-width="2" d="M1531.5,-1476C1531.5,-1476 1464.5,-1476 1464.5,-1476 1458.5,-1476 1452.5,-1470 1452.5,-1464 1452.5,-1464 1452.5,-1452 1452.5,-1452 1452.5,-1446 1458.5,-1440 1464.5,-1440 1464.5,-1440 1531.5,-1440 1531.5,-1440 1537.5,-1440 1543.5,-1446 1543.5,-1452 1543.5,-1452 1543.5,-1464 1543.5,-1464 1543.5,-1470 1537.5,-1476 1531.5,-1476"/>
<text text-anchor="middle" x="1498" y="-1455.5" font-family="sans" font-size="10.00">samtools_stats</text>
</g>
<!-- 6&#45;&gt;14 -->
<g id="edge40" class="edge">
<title>6&#45;&gt;14</title>
<path fill="none" stroke="grey" stroke-width="2" d="M829.06,-1591.05C901.1,-1581.3 1012.2,-1565.4 1108,-1548 1255.04,-1521.3 1294.65,-1515.23 1442.52,-1476.29"/>
<polygon fill="grey" stroke="grey" stroke-width="2" points="1443.65,-1479.62 1452.42,-1473.68 1441.86,-1472.85 1443.65,-1479.62"/>
</g>
<!-- 15 -->
<g id="node16" class="node">
<title>15</title>
<path fill="none" stroke="#78d856" stroke-width="2" d="M120,-1476C120,-1476 40,-1476 40,-1476 34,-1476 28,-1470 28,-1464 28,-1464 28,-1452 28,-1452 28,-1446 34,-1440 40,-1440 40,-1440 120,-1440 120,-1440 126,-1440 132,-1446 132,-1452 132,-1452 132,-1464 132,-1464 132,-1470 126,-1476 120,-1476"/>
<text text-anchor="middle" x="80" y="-1455.5" font-family="sans" font-size="10.00">samtools_flagstat</text>
</g>
<!-- 6&#45;&gt;15 -->
<g id="edge42" class="edge">
<title>6&#45;&gt;15</title>
<path fill="none" stroke="grey" stroke-width="2" d="M676.74,-1600.81C579.02,-1598.75 405.26,-1588.94 263,-1548 209.17,-1532.51 151.81,-1502.06 115.96,-1481.13"/>
<polygon fill="grey" stroke="grey" stroke-width="2" points="117.71,-1478.1 107.32,-1476.03 114.15,-1484.13 117.71,-1478.1"/>
</g>
<!-- 16 -->
<g id="node17" class="node">
<title>16</title>
<path fill="none" stroke="#56d89a" stroke-width="2" d="M203.5,-1476C203.5,-1476 162.5,-1476 162.5,-1476 156.5,-1476 150.5,-1470 150.5,-1464 150.5,-1464 150.5,-1452 150.5,-1452 150.5,-1446 156.5,-1440 162.5,-1440 162.5,-1440 203.5,-1440 203.5,-1440 209.5,-1440 215.5,-1446 215.5,-1452 215.5,-1452 215.5,-1464 215.5,-1464 215.5,-1470 209.5,-1476 203.5,-1476"/>
<text text-anchor="middle" x="183" y="-1455.5" font-family="sans" font-size="10.00">mosdepth</text>
</g>
<!-- 6&#45;&gt;16 -->
<g id="edge44" class="edge">
<title>6&#45;&gt;16</title>
<path fill="none" stroke="grey" stroke-width="2" d="M676.7,-1599.51C593.31,-1595.97 456.69,-1584.49 345,-1548 297.18,-1532.38 247.18,-1502.52 215.6,-1481.71"/>
<polygon fill="grey" stroke="grey" stroke-width="2" points="217.46,-1478.74 207.2,-1476.1 213.57,-1484.57 217.46,-1478.74"/>
</g>
<!-- 19 -->
<g id="node20" class="node">
<title>19</title>
<path fill="none" stroke="#d86656" stroke-width="2" d="M368,-1476C368,-1476 246,-1476 246,-1476 240,-1476 234,-1470 234,-1464 234,-1464 234,-1452 234,-1452 234,-1446 240,-1440 246,-1440 246,-1440 368,-1440 368,-1440 374,-1440 380,-1446 380,-1452 380,-1452 380,-1464 380,-1464 380,-1470 374,-1476 368,-1476"/>
<text text-anchor="middle" x="307" y="-1455.5" font-family="sans" font-size="10.00">germline_haplotype_caller</text>
</g>
<!-- 6&#45;&gt;19 -->
<g id="edge48" class="edge">
<title>6&#45;&gt;19</title>
<path fill="none" stroke="grey" stroke-width="2" d="M676.81,-1595.48C586.47,-1587.95 442.06,-1572.51 394,-1548 364.9,-1533.16 339.83,-1504.81 324.18,-1484.08"/>
<polygon fill="grey" stroke="grey" stroke-width="2" points="326.99,-1482 318.26,-1476 321.35,-1486.14 326.99,-1482"/>
</g>
<!-- 26 -->
<g id="node27" class="node">
<title>26</title>
<path fill="none" stroke="#97d856" stroke-width="2" d="M553,-1116C553,-1116 401,-1116 401,-1116 395,-1116 389,-1110 389,-1104 389,-1104 389,-1092 389,-1092 389,-1086 395,-1080 401,-1080 401,-1080 553,-1080 553,-1080 559,-1080 565,-1086 565,-1092 565,-1092 565,-1104 565,-1104 565,-1110 559,-1116 553,-1116"/>
<text text-anchor="middle" x="477" y="-1095.5" font-family="sans" font-size="10.00">somatic_mutect2_tumor_normal</text>
</g>
<!-- 6&#45;&gt;26 -->
<g id="edge64" class="edge">
<title>6&#45;&gt;26</title>
<path fill="none" stroke="grey" stroke-width="2" d="M676.86,-1585.64C575.26,-1562.91 408,-1516.73 408,-1459 408,-1459 408,-1459 408,-1241 408,-1200.03 412.95,-1188.27 432,-1152 437.27,-1141.96 444.74,-1132.15 452.08,-1123.75"/>
<polygon fill="grey" stroke="grey" stroke-width="2" points="454.84,-1125.92 459,-1116.17 449.67,-1121.2 454.84,-1125.92"/>
</g>
<!-- 31 -->
<g id="node32" class="node">
<title>31</title>
<path fill="none" stroke="#56d87b" stroke-width="2" d="M504,-1476C504,-1476 448,-1476 448,-1476 442,-1476 436,-1470 436,-1464 436,-1464 436,-1452 436,-1452 436,-1446 442,-1440 448,-1440 448,-1440 504,-1440 504,-1440 510,-1440 516,-1446 516,-1452 516,-1452 516,-1464 516,-1464 516,-1470 510,-1476 504,-1476"/>
<text text-anchor="middle" x="476" y="-1455.5" font-family="sans" font-size="10.00">pon_mutect2</text>
</g>
<!-- 6&#45;&gt;31 -->
<g id="edge70" class="edge">
<title>6&#45;&gt;31</title>
<path fill="none" stroke="grey" stroke-width="2" d="M719.26,-1583.85C698.9,-1573.49 672.45,-1560.01 649,-1548 604.29,-1525.11 553.15,-1498.78 518.13,-1480.73"/>
<polygon fill="grey" stroke="grey" stroke-width="2" points="519.64,-1477.57 509.15,-1476.1 516.43,-1483.79 519.64,-1477.57"/>
</g>
<!-- 34 -->
<g id="node35" class="node">
<title>34</title>
<path fill="none" stroke="#56d882" stroke-width="2" d="M694,-1476C694,-1476 546,-1476 546,-1476 540,-1476 534,-1470 534,-1464 534,-1464 534,-1452 534,-1452 534,-1446 540,-1440 546,-1440 546,-1440 694,-1440 694,-1440 700,-1440 706,-1446 706,-1452 706,-1452 706,-1464 706,-1464 706,-1470 700,-1476 694,-1476"/>
<text text-anchor="middle" x="620" y="-1455.5" font-family="sans" font-size="10.00">somatic_get_pileup_summaries</text>
</g>
<!-- 6&#45;&gt;34 -->
<g id="edge74" class="edge">
<title>6&#45;&gt;34</title>
<path fill="none" stroke="grey" stroke-width="2" d="M724.85,-1583.94C710.47,-1574.43 693.27,-1561.74 680,-1548 661.62,-1528.97 645.17,-1503.66 634.16,-1484.9"/>
<polygon fill="grey" stroke="grey" stroke-width="2" points="637.08,-1482.95 629.07,-1476.02 631,-1486.43 637.08,-1482.95"/>
</g>
<!-- 50 -->
<g id="node51" class="node">
<title>50</title>
<path fill="none" stroke="#56d88a" stroke-width="2" d="M1019.5,-1476C1019.5,-1476 812.5,-1476 812.5,-1476 806.5,-1476 800.5,-1470 800.5,-1464 800.5,-1464 800.5,-1452 800.5,-1452 800.5,-1446 806.5,-1440 812.5,-1440 812.5,-1440 1019.5,-1440 1019.5,-1440 1025.5,-1440 1031.5,-1446 1031.5,-1452 1031.5,-1452 1031.5,-1464 1031.5,-1464 1031.5,-1470 1025.5,-1476 1019.5,-1476"/>
<text text-anchor="middle" x="916" y="-1455.5" font-family="sans" font-size="10.00">somatic_cnv_get_snp_pileup_tumor_normal</text>
</g>
<!-- 6&#45;&gt;50 -->
<g id="edge93" class="edge">
<title>6&#45;&gt;50</title>
<path fill="none" stroke="grey" stroke-width="2" d="M778.38,-1584C792.75,-1574.02 810.84,-1560.87 826,-1548 850.04,-1527.59 875.41,-1502.1 893.06,-1483.63"/>
<polygon fill="grey" stroke="grey" stroke-width="2" points="895.78,-1485.85 900.13,-1476.18 890.71,-1481.03 895.78,-1485.85"/>
</g>
<!-- 63 -->
<g id="node64" class="node">
<title>63</title>
<path fill="none" stroke="#56d8b1" stroke-width="2" d="M1156,-1476C1156,-1476 1062,-1476 1062,-1476 1056,-1476 1050,-1470 1050,-1464 1050,-1464 1050,-1452 1050,-1452 1050,-1446 1056,-1440 1062,-1440 1062,-1440 1156,-1440 1156,-1440 1162,-1440 1168,-1446 1168,-1452 1168,-1452 1168,-1464 1168,-1464 1168,-1470 1162,-1476 1156,-1476"/>
<text text-anchor="middle" x="1109" y="-1455.5" font-family="sans" font-size="10.00">somatic_msi_mantis</text>
</g>
<!-- 6&#45;&gt;63 -->
<g id="edge108" class="edge">
<title>6&#45;&gt;63</title>
<path fill="none" stroke="grey" stroke-width="2" d="M795.94,-1583.87C861.38,-1557.77 985.9,-1508.1 1056.58,-1479.91"/>
<polygon fill="grey" stroke="grey" stroke-width="2" points="1058.19,-1483.03 1066.18,-1476.08 1055.6,-1476.53 1058.19,-1483.03"/>
</g>
<!-- 7 -->
<g id="node8" class="node">
<title>7</title>
<path fill="none" stroke="#70d856" stroke-width="2" d="M781.5,-1692C781.5,-1692 724.5,-1692 724.5,-1692 718.5,-1692 712.5,-1686 712.5,-1680 712.5,-1680 712.5,-1668 712.5,-1668 712.5,-1662 718.5,-1656 724.5,-1656 724.5,-1656 781.5,-1656 781.5,-1656 787.5,-1656 793.5,-1662 793.5,-1668 793.5,-1668 793.5,-1680 793.5,-1680 793.5,-1686 787.5,-1692 781.5,-1692"/>
<text text-anchor="middle" x="753" y="-1671.5" font-family="sans" font-size="10.00">apply_bqsr_1</text>
</g>
<!-- 7&#45;&gt;6 -->
<g id="edge27" class="edge">
<title>7&#45;&gt;6</title>
<path fill="none" stroke="grey" stroke-width="2" d="M753,-1655.7C753,-1647.98 753,-1638.71 753,-1630.11"/>
<polygon fill="grey" stroke="grey" stroke-width="2" points="756.5,-1630.1 753,-1620.1 749.5,-1630.1 756.5,-1630.1"/>
</g>
<!-- 8 -->
<g id="node9" class="node">
<title>8</title>
<path fill="none" stroke="#88d856" stroke-width="2" d="M817,-1908C817,-1908 743,-1908 743,-1908 737,-1908 731,-1902 731,-1896 731,-1896 731,-1884 731,-1884 731,-1878 737,-1872 743,-1872 743,-1872 817,-1872 817,-1872 823,-1872 829,-1878 829,-1884 829,-1884 829,-1896 829,-1896 829,-1902 823,-1908 817,-1908"/>
<text text-anchor="middle" x="780" y="-1887.5" font-family="sans" font-size="10.00">mark_duplicates</text>
</g>
<!-- 8&#45;&gt;7 -->
<g id="edge30" class="edge">
<title>8&#45;&gt;7</title>
<path fill="none" stroke="grey" stroke-width="2" d="M739.82,-1871.77C725.17,-1863.28 710.2,-1851.48 702,-1836 678.19,-1791.04 710.08,-1733.08 733.11,-1700.38"/>
<polygon fill="grey" stroke="grey" stroke-width="2" points="735.97,-1702.39 739.02,-1692.25 730.31,-1698.28 735.97,-1702.39"/>
</g>
<!-- 10 -->
<g id="node11" class="node">
<title>10</title>
<path fill="none" stroke="#d8bc56" stroke-width="2" d="M836.5,-1836C836.5,-1836 723.5,-1836 723.5,-1836 717.5,-1836 711.5,-1830 711.5,-1824 711.5,-1824 711.5,-1812 711.5,-1812 711.5,-1806 717.5,-1800 723.5,-1800 723.5,-1800 836.5,-1800 836.5,-1800 842.5,-1800 848.5,-1806 848.5,-1812 848.5,-1812 848.5,-1824 848.5,-1824 848.5,-1830 842.5,-1836 836.5,-1836"/>
<text text-anchor="middle" x="780" y="-1815.5" font-family="sans" font-size="10.00">index_bam_before_recal</text>
</g>
<!-- 8&#45;&gt;10 -->
<g id="edge33" class="edge">
<title>8&#45;&gt;10</title>
<path fill="none" stroke="grey" stroke-width="2" d="M780,-1871.7C780,-1863.98 780,-1854.71 780,-1846.11"/>
<polygon fill="grey" stroke="grey" stroke-width="2" points="783.5,-1846.1 780,-1836.1 776.5,-1846.1 783.5,-1846.1"/>
</g>
<!-- 11 -->
<g id="node12" class="node">
<title>11</title>
<path fill="none" stroke="#566bd8" stroke-width="2" d="M823,-1764C823,-1764 793,-1764 793,-1764 787,-1764 781,-1758 781,-1752 781,-1752 781,-1740 781,-1740 781,-1734 787,-1728 793,-1728 793,-1728 823,-1728 823,-1728 829,-1728 835,-1734 835,-1740 835,-1740 835,-1752 835,-1752 835,-1758 829,-1764 823,-1764"/>
<text text-anchor="middle" x="808" y="-1743.5" font-family="sans" font-size="10.00">bqsr_1</text>
</g>
<!-- 8&#45;&gt;11 -->
<g id="edge35" class="edge">
<title>8&#45;&gt;11</title>
<path fill="none" stroke="grey" stroke-width="2" d="M820.18,-1871.77C834.83,-1863.28 849.8,-1851.48 858,-1836 865.49,-1821.86 863.91,-1814.87 858,-1800 853.71,-1789.2 846.06,-1779.32 838.01,-1771.1"/>
<polygon fill="grey" stroke="grey" stroke-width="2" points="840.25,-1768.4 830.6,-1764.04 835.42,-1773.47 840.25,-1768.4"/>
</g>
<!-- 9&#45;&gt;8 -->
<g id="edge31" class="edge">
<title>9&#45;&gt;8</title>
<path fill="none" stroke="grey" stroke-width="2" d="M780,-1943.7C780,-1935.98 780,-1926.71 780,-1918.11"/>
<polygon fill="grey" stroke="grey" stroke-width="2" points="783.5,-1918.1 780,-1908.1 776.5,-1918.1 783.5,-1918.1"/>
</g>
<!-- 10&#45;&gt;7 -->
<g id="edge29" class="edge">
<title>10&#45;&gt;7</title>
<path fill="none" stroke="grey" stroke-width="2" d="M776.74,-1799.87C772.14,-1775.67 763.69,-1731.21 758.21,-1702.39"/>
<polygon fill="grey" stroke="grey" stroke-width="2" points="761.57,-1701.36 756.27,-1692.19 754.7,-1702.67 761.57,-1701.36"/>
</g>
<!-- 10&#45;&gt;11 -->
<g id="edge34" class="edge">
<title>10&#45;&gt;11</title>
<path fill="none" stroke="grey" stroke-width="2" d="M786.92,-1799.7C790.07,-1791.81 793.88,-1782.3 797.38,-1773.55"/>
<polygon fill="grey" stroke="grey" stroke-width="2" points="800.69,-1774.69 801.16,-1764.1 794.19,-1772.09 800.69,-1774.69"/>
</g>
<!-- 11&#45;&gt;7 -->
<g id="edge28" class="edge">
<title>11&#45;&gt;7</title>
<path fill="none" stroke="grey" stroke-width="2" d="M794.4,-1727.7C787.88,-1719.39 779.93,-1709.28 772.75,-1700.14"/>
<polygon fill="grey" stroke="grey" stroke-width="2" points="775.37,-1697.81 766.44,-1692.1 769.87,-1702.13 775.37,-1697.81"/>
</g>
<!-- 12&#45;&gt;0 -->
<g id="edge3" class="edge">
<title>12&#45;&gt;0</title>
<path fill="none" stroke="grey" stroke-width="2" d="M756.84,-1511.61C762.4,-1484.94 772,-1432.27 772,-1387 772,-1387 772,-1387 772,-1169 772,-881.85 761,-810.15 761,-523 761,-523 761,-523 761,-305 761,-264.46 769.5,-244.83 741,-216 692.19,-166.63 632.06,-234.45 589,-180 568.64,-154.25 604.79,-78.01 612,-72 668.49,-24.92 896.41,-19.22 986.8,-18.84"/>
<polygon fill="grey" stroke="grey" stroke-width="2" points="986.88,-22.34 996.88,-18.82 986.87,-15.34 986.88,-22.34"/>
</g>
<!-- 12&#45;&gt;5 -->
<g id="edge25" class="edge">
<title>12&#45;&gt;5</title>
<path fill="none" stroke="grey" stroke-width="2" d="M817.27,-1523.2C898.59,-1515.37 1043.09,-1499.79 1176.16,-1476.04"/>
<polygon fill="grey" stroke="grey" stroke-width="2" points="1176.91,-1479.46 1186.13,-1474.24 1175.67,-1472.57 1176.91,-1479.46"/>
</g>
<!-- 12&#45;&gt;13 -->
<g id="edge37" class="edge">
<title>12&#45;&gt;13</title>
<path fill="none" stroke="grey" stroke-width="2" d="M817.16,-1526.63C920.77,-1522.01 1131.33,-1509.32 1317.4,-1476.12"/>
<polygon fill="grey" stroke="grey" stroke-width="2" points="1318.15,-1479.55 1327.36,-1474.32 1316.9,-1472.66 1318.15,-1479.55"/>
</g>
<!-- 12&#45;&gt;14 -->
<g id="edge39" class="edge">
<title>12&#45;&gt;14</title>
<path fill="none" stroke="grey" stroke-width="2" d="M817,-1528.95C938.01,-1527.79 1208.49,-1520.19 1442.18,-1476.11"/>
<polygon fill="grey" stroke="grey" stroke-width="2" points="1443.06,-1479.51 1452.23,-1474.19 1441.75,-1472.63 1443.06,-1479.51"/>
</g>
<!-- 12&#45;&gt;15 -->
<g id="edge41" class="edge">
<title>12&#45;&gt;15</title>
<path fill="none" stroke="grey" stroke-width="2" d="M688.61,-1527.34C578.3,-1523.65 346.19,-1512.14 142.1,-1476"/>
<polygon fill="grey" stroke="grey" stroke-width="2" points="142.56,-1472.53 132.1,-1474.2 141.32,-1479.41 142.56,-1472.53"/>
</g>
<!-- 12&#45;&gt;16 -->
<g id="edge43" class="edge">
<title>12&#45;&gt;16</title>
<path fill="none" stroke="grey" stroke-width="2" d="M688.61,-1528.4C590.06,-1526.2 396.23,-1516.82 225.63,-1475.7"/>
<polygon fill="grey" stroke="grey" stroke-width="2" points="226.27,-1472.26 215.72,-1473.27 224.6,-1479.05 226.27,-1472.26"/>
</g>
<!-- 12&#45;&gt;19 -->
<g id="edge47" class="edge">
<title>12&#45;&gt;19</title>
<path fill="none" stroke="grey" stroke-width="2" d="M688.62,-1518.9C609.96,-1506.55 476.7,-1485.63 390.29,-1472.07"/>
<polygon fill="grey" stroke="grey" stroke-width="2" points="390.68,-1468.59 380.26,-1470.5 389.59,-1475.51 390.68,-1468.59"/>
</g>
<!-- 12&#45;&gt;26 -->
<g id="edge62" class="edge">
<title>12&#45;&gt;26</title>
<path fill="none" stroke="grey" stroke-width="2" d="M749.16,-1511.61C743.6,-1484.94 734,-1432.27 734,-1387 734,-1387 734,-1387 734,-1241 734,-1165.42 647.78,-1129.75 575.22,-1113.12"/>
<polygon fill="grey" stroke="grey" stroke-width="2" points="575.6,-1109.62 565.09,-1110.9 574.1,-1116.46 575.6,-1109.62"/>
</g>
<!-- 12&#45;&gt;31 -->
<g id="edge69" class="edge">
<title>12&#45;&gt;31</title>
<path fill="none" stroke="grey" stroke-width="2" d="M688.65,-1515.94C645.06,-1506.65 586.02,-1493.23 525.69,-1476.05"/>
<polygon fill="grey" stroke="grey" stroke-width="2" points="526.58,-1472.67 516,-1473.26 524.64,-1479.39 526.58,-1472.67"/>
</g>
<!-- 12&#45;&gt;34 -->
<g id="edge73" class="edge">
<title>12&#45;&gt;34</title>
<path fill="none" stroke="grey" stroke-width="2" d="M720.46,-1511.88C702.75,-1502.55 680.65,-1490.92 661.68,-1480.94"/>
<polygon fill="grey" stroke="grey" stroke-width="2" points="663.14,-1477.75 652.66,-1476.19 659.88,-1483.94 663.14,-1477.75"/>
</g>
<!-- 12&#45;&gt;50 -->
<g id="edge92" class="edge">
<title>12&#45;&gt;50</title>
<path fill="none" stroke="grey" stroke-width="2" d="M792.87,-1511.88C815.16,-1502.31 843.12,-1490.3 866.76,-1480.15"/>
<polygon fill="grey" stroke="grey" stroke-width="2" points="868.45,-1483.23 876.26,-1476.07 865.69,-1476.8 868.45,-1483.23"/>
</g>
<!-- 12&#45;&gt;63 -->
<g id="edge107" class="edge">
<title>12&#45;&gt;63</title>
<path fill="none" stroke="grey" stroke-width="2" d="M817,-1518.41C873.23,-1508.84 957.47,-1493.84 1039.7,-1476.22"/>
<polygon fill="grey" stroke="grey" stroke-width="2" points="1040.68,-1479.59 1049.71,-1474.06 1039.2,-1472.74 1040.68,-1479.59"/>
</g>
<!-- 13&#45;&gt;0 -->
<g id="edge19" class="edge">
<title>13&#45;&gt;0</title>
<path fill="none" stroke="grey" stroke-width="2" d="M1427.56,-1439.87C1476.04,-1418.67 1545,-1377.52 1545,-1315 1545,-1315 1545,-1315 1545,-161 1545,-115.41 1532.1,-97.04 1494,-72 1422.99,-25.34 1159.62,-19.48 1061.32,-18.95"/>
<polygon fill="grey" stroke="grey" stroke-width="2" points="1061.26,-15.45 1051.25,-18.91 1061.23,-22.45 1061.26,-15.45"/>
</g>
<!-- 14&#45;&gt;0 -->
<g id="edge5" class="edge">
<title>14&#45;&gt;0</title>
<path fill="none" stroke="grey" stroke-width="2" d="M1516.86,-1439.73C1541.91,-1414.82 1583,-1366.14 1583,-1315 1583,-1315 1583,-1315 1583,-161 1583,-114.27 1566.67,-96.71 1527,-72 1449.26,-23.57 1164.19,-18.88 1061.33,-18.8"/>
<polygon fill="grey" stroke="grey" stroke-width="2" points="1061.11,-15.3 1051.11,-18.81 1061.11,-22.3 1061.11,-15.3"/>
</g>
<!-- 15&#45;&gt;0 -->
<g id="edge10" class="edge">
<title>15&#45;&gt;0</title>
<path fill="none" stroke="grey" stroke-width="2" d="M80,-1439.95C80,-1413.29 80,-1360.11 80,-1315 80,-1315 80,-1315 80,-161 80,-116.06 90.11,-96.16 128,-72 201.21,-25.32 826.09,-19.75 986.56,-19.09"/>
<polygon fill="grey" stroke="grey" stroke-width="2" points="986.89,-22.59 996.88,-19.05 986.86,-15.59 986.89,-22.59"/>
</g>
<!-- 16&#45;&gt;0 -->
<g id="edge14" class="edge">
<title>16&#45;&gt;0</title>
<path fill="none" stroke="grey" stroke-width="2" d="M169.22,-1439.79C150.14,-1414.18 118,-1363.8 118,-1315 118,-1315 118,-1315 118,-161 118,-113.79 135.21,-95.78 176,-72 246.62,-30.83 830.81,-21.22 986.17,-19.38"/>
<polygon fill="grey" stroke="grey" stroke-width="2" points="986.64,-22.88 996.6,-19.26 986.56,-15.88 986.64,-22.88"/>
</g>
<!-- 17 -->
<g id="node18" class="node">
<title>17</title>
<path fill="none" stroke="#56d8c9" stroke-width="2" d="M271.5,-1116C271.5,-1116 190.5,-1116 190.5,-1116 184.5,-1116 178.5,-1110 178.5,-1104 178.5,-1104 178.5,-1092 178.5,-1092 178.5,-1086 184.5,-1080 190.5,-1080 190.5,-1080 271.5,-1080 271.5,-1080 277.5,-1080 283.5,-1086 283.5,-1092 283.5,-1092 283.5,-1104 283.5,-1104 283.5,-1110 277.5,-1116 271.5,-1116"/>
<text text-anchor="middle" x="231" y="-1095.5" font-family="sans" font-size="10.00">germline_annovar</text>
</g>
<!-- 17&#45;&gt;0 -->
<g id="edge17" class="edge">
<title>17&#45;&gt;0</title>
<path fill="none" stroke="grey" stroke-width="2" d="M214.73,-1079.73C192.67,-1054.45 156,-1004.91 156,-955 156,-955 156,-955 156,-161 156,-76.5 242.83,-95.46 324,-72 450.14,-35.54 859.84,-22.91 986.4,-19.82"/>
<polygon fill="grey" stroke="grey" stroke-width="2" points="986.82,-23.31 996.73,-19.58 986.65,-16.32 986.82,-23.31"/>
</g>
<!-- 18 -->
<g id="node19" class="node">
<title>18</title>
<path fill="none" stroke="#d85656" stroke-width="2" d="M334.5,-1404C334.5,-1404 191.5,-1404 191.5,-1404 185.5,-1404 179.5,-1398 179.5,-1392 179.5,-1392 179.5,-1380 179.5,-1380 179.5,-1374 185.5,-1368 191.5,-1368 191.5,-1368 334.5,-1368 334.5,-1368 340.5,-1368 346.5,-1374 346.5,-1380 346.5,-1380 346.5,-1392 346.5,-1392 346.5,-1398 340.5,-1404 334.5,-1404"/>
<text text-anchor="middle" x="263" y="-1383.5" font-family="sans" font-size="10.00">germline_filter_false_positives</text>
</g>
<!-- 18&#45;&gt;17 -->
<g id="edge45" class="edge">
<title>18&#45;&gt;17</title>
<path fill="none" stroke="grey" stroke-width="2" d="M261.09,-1367.97C255.75,-1320.19 240.58,-1184.62 234.05,-1126.27"/>
<polygon fill="grey" stroke="grey" stroke-width="2" points="237.53,-1125.86 232.94,-1116.31 230.57,-1126.63 237.53,-1125.86"/>
</g>
<!-- 19&#45;&gt;18 -->
<g id="edge46" class="edge">
<title>19&#45;&gt;18</title>
<path fill="none" stroke="grey" stroke-width="2" d="M296.12,-1439.7C291.01,-1431.56 284.8,-1421.69 279.16,-1412.7"/>
<polygon fill="grey" stroke="grey" stroke-width="2" points="282.04,-1410.71 273.75,-1404.1 276.11,-1414.43 282.04,-1410.71"/>
</g>
<!-- 20 -->
<g id="node21" class="node">
<title>20</title>
<path fill="none" stroke="#56d8d0" stroke-width="2" d="M467,-108C467,-108 345,-108 345,-108 339,-108 333,-102 333,-96 333,-96 333,-84 333,-84 333,-78 339,-72 345,-72 345,-72 467,-72 467,-72 473,-72 479,-78 479,-84 479,-84 479,-96 479,-96 479,-102 473,-108 467,-108"/>
<text text-anchor="middle" x="406" y="-87.5" font-family="sans" font-size="10.00">somatic_maf_last_filtering</text>
</g>
<!-- 20&#45;&gt;0 -->
<g id="edge16" class="edge">
<title>20&#45;&gt;0</title>
<path fill="none" stroke="grey" stroke-width="2" d="M479.17,-78.42C495.25,-76.2 512.19,-73.95 528,-72 699.07,-50.95 903.94,-30.59 986.65,-22.58"/>
<polygon fill="grey" stroke="grey" stroke-width="2" points="987.2,-26.04 996.81,-21.6 986.52,-19.07 987.2,-26.04"/>
</g>
<!-- 21 -->
<g id="node22" class="node">
<title>21</title>
<path fill="none" stroke="#80d856" stroke-width="2" d="M341,-612C341,-612 197,-612 197,-612 191,-612 185,-606 185,-600 185,-600 185,-588 185,-588 185,-582 191,-576 197,-576 197,-576 341,-576 341,-576 347,-576 353,-582 353,-588 353,-588 353,-600 353,-600 353,-606 347,-612 341,-612"/>
<text text-anchor="middle" x="269" y="-591.5" font-family="sans" font-size="10.00">somatic_maf_filters_aggregate</text>
</g>
<!-- 21&#45;&gt;20 -->
<g id="edge52" class="edge">
<title>21&#45;&gt;20</title>
<path fill="none" stroke="grey" stroke-width="2" d="M252.73,-575.73C230.67,-550.45 194,-500.91 194,-451 194,-451 194,-451 194,-233 194,-168.06 263.51,-130.93 322.93,-111.06"/>
<polygon fill="grey" stroke="grey" stroke-width="2" points="324.3,-114.29 332.74,-107.9 322.15,-107.63 324.3,-114.29"/>
</g>
<!-- 22 -->
<g id="node23" class="node">
<title>22</title>
<path fill="none" stroke="#56d8a2" stroke-width="2" d="M526,-684C526,-684 362,-684 362,-684 356,-684 350,-678 350,-672 350,-672 350,-660 350,-660 350,-654 356,-648 362,-648 362,-648 526,-648 526,-648 532,-648 538,-654 538,-660 538,-660 538,-672 538,-672 538,-678 532,-684 526,-684"/>
<text text-anchor="middle" x="444" y="-663.5" font-family="sans" font-size="10.00">somatic_maf_filters_process_fields</text>
</g>
<!-- 22&#45;&gt;21 -->
<g id="edge54" class="edge">
<title>22&#45;&gt;21</title>
<path fill="none" stroke="grey" stroke-width="2" d="M401.19,-647.88C377.05,-638.22 346.72,-626.09 321.19,-615.88"/>
<polygon fill="grey" stroke="grey" stroke-width="2" points="322.26,-612.53 311.67,-612.07 319.66,-619.03 322.26,-612.53"/>
</g>
<!-- 39 -->
<g id="node40" class="node">
<title>39</title>
<path fill="none" stroke="#d89c56" stroke-width="2" d="M503.5,-612C503.5,-612 384.5,-612 384.5,-612 378.5,-612 372.5,-606 372.5,-600 372.5,-600 372.5,-588 372.5,-588 372.5,-582 378.5,-576 384.5,-576 384.5,-576 503.5,-576 503.5,-576 509.5,-576 515.5,-582 515.5,-588 515.5,-588 515.5,-600 515.5,-600 515.5,-606 509.5,-612 503.5,-612"/>
<text text-anchor="middle" x="444" y="-591.5" font-family="sans" font-size="10.00">somatic_maf_select_pass</text>
</g>
<!-- 22&#45;&gt;39 -->
<g id="edge80" class="edge">
<title>22&#45;&gt;39</title>
<path fill="none" stroke="grey" stroke-width="2" d="M444,-647.7C444,-639.98 444,-630.71 444,-622.11"/>
<polygon fill="grey" stroke="grey" stroke-width="2" points="447.5,-622.1 444,-612.1 440.5,-622.1 447.5,-622.1"/>
</g>
<!-- 23 -->
<g id="node24" class="node">
<title>23</title>
<path fill="none" stroke="#d88d56" stroke-width="2" d="M656,-828C656,-828 468,-828 468,-828 462,-828 456,-822 456,-816 456,-816 456,-804 456,-804 456,-798 462,-792 468,-792 468,-792 656,-792 656,-792 662,-792 668,-798 668,-804 668,-804 668,-816 668,-816 668,-822 662,-828 656,-828"/>
<text text-anchor="middle" x="562" y="-807.5" font-family="sans" font-size="10.00">somatic_maf_filter_outside_intersection</text>
</g>
<!-- 23&#45;&gt;22 -->
<g id="edge56" class="edge">
<title>23&#45;&gt;22</title>
<path fill="none" stroke="grey" stroke-width="2" d="M510.86,-791.91C493.27,-783.65 475.01,-771.97 463,-756 449.68,-738.29 445.25,-713.27 443.97,-694.27"/>
<polygon fill="grey" stroke="grey" stroke-width="2" points="447.46,-693.99 443.54,-684.15 440.47,-694.28 447.46,-693.99"/>
</g>
<!-- 35 -->
<g id="node36" class="node">
<title>35</title>
<path fill="none" stroke="#d8d356" stroke-width="2" d="M639.5,-756C639.5,-756 484.5,-756 484.5,-756 478.5,-756 472.5,-750 472.5,-744 472.5,-744 472.5,-732 472.5,-732 472.5,-726 478.5,-720 484.5,-720 484.5,-720 639.5,-720 639.5,-720 645.5,-720 651.5,-726 651.5,-732 651.5,-732 651.5,-744 651.5,-744 651.5,-750 645.5,-756 639.5,-756"/>
<text text-anchor="middle" x="562" y="-735.5" font-family="sans" font-size="10.00">somatic_maf_filters_vcf_to_table</text>
</g>
<!-- 23&#45;&gt;35 -->
<g id="edge75" class="edge">
<title>23&#45;&gt;35</title>
<path fill="none" stroke="grey" stroke-width="2" d="M562,-791.7C562,-783.98 562,-774.71 562,-766.11"/>
<polygon fill="grey" stroke="grey" stroke-width="2" points="565.5,-766.1 562,-756.1 558.5,-766.1 565.5,-766.1"/>
</g>
<!-- 24 -->
<g id="node25" class="node">
<title>24</title>
<path fill="none" stroke="#d8a456" stroke-width="2" d="M644.5,-900C644.5,-900 481.5,-900 481.5,-900 475.5,-900 469.5,-894 469.5,-888 469.5,-888 469.5,-876 469.5,-876 469.5,-870 475.5,-864 481.5,-864 481.5,-864 644.5,-864 644.5,-864 650.5,-864 656.5,-870 656.5,-876 656.5,-876 656.5,-888 656.5,-888 656.5,-894 650.5,-900 644.5,-900"/>
<text text-anchor="middle" x="563" y="-879.5" font-family="sans" font-size="10.00">somatic_maf_filter_false_positives</text>
</g>
<!-- 24&#45;&gt;23 -->
<g id="edge57" class="edge">
<title>24&#45;&gt;23</title>
<path fill="none" stroke="grey" stroke-width="2" d="M562.75,-863.7C562.64,-855.98 562.51,-846.71 562.39,-838.11"/>
<polygon fill="grey" stroke="grey" stroke-width="2" points="565.89,-838.05 562.24,-828.1 558.89,-838.15 565.89,-838.05"/>
</g>
<!-- 25 -->
<g id="node26" class="node">
<title>25</title>
<path fill="none" stroke="#565bd8" stroke-width="2" d="M639,-972C639,-972 487,-972 487,-972 481,-972 475,-966 475,-960 475,-960 475,-948 475,-948 475,-942 481,-936 487,-936 487,-936 639,-936 639,-936 645,-936 651,-942 651,-948 651,-948 651,-960 651,-960 651,-966 645,-972 639,-972"/>
<text text-anchor="middle" x="563" y="-951.5" font-family="sans" font-size="10.00">somatic_maf_filter_mutect_calls</text>
</g>
<!-- 25&#45;&gt;24 -->
<g id="edge58" class="edge">
<title>25&#45;&gt;24</title>
<path fill="none" stroke="grey" stroke-width="2" d="M563,-935.7C563,-927.98 563,-918.71 563,-910.11"/>
<polygon fill="grey" stroke="grey" stroke-width="2" points="566.5,-910.1 563,-900.1 559.5,-910.1 566.5,-910.1"/>
</g>
<!-- 26&#45;&gt;25 -->
<g id="edge60" class="edge">
<title>26&#45;&gt;25</title>
<path fill="none" stroke="grey" stroke-width="2" d="M512.24,-1079.95C526.57,-1071.21 541.88,-1059.17 551,-1044 562.15,-1025.46 564.74,-1000.87 564.77,-982.24"/>
<polygon fill="grey" stroke="grey" stroke-width="2" points="568.27,-981.96 564.54,-972.04 561.27,-982.12 568.27,-981.96"/>
</g>
<!-- 32 -->
<g id="node33" class="node">
<title>32</title>
<path fill="none" stroke="#5682d8" stroke-width="2" d="M530.5,-1044C530.5,-1044 347.5,-1044 347.5,-1044 341.5,-1044 335.5,-1038 335.5,-1032 335.5,-1032 335.5,-1020 335.5,-1020 335.5,-1014 341.5,-1008 347.5,-1008 347.5,-1008 530.5,-1008 530.5,-1008 536.5,-1008 542.5,-1014 542.5,-1020 542.5,-1020 542.5,-1032 542.5,-1032 542.5,-1038 536.5,-1044 530.5,-1044"/>
<text text-anchor="middle" x="439" y="-1023.5" font-family="sans" font-size="10.00">somatic_learn_read_orientation_model</text>
</g>
<!-- 26&#45;&gt;32 -->
<g id="edge71" class="edge">
<title>26&#45;&gt;32</title>
<path fill="none" stroke="grey" stroke-width="2" d="M467.61,-1079.7C463.24,-1071.64 457.94,-1061.89 453.1,-1052.98"/>
<polygon fill="grey" stroke="grey" stroke-width="2" points="456.13,-1051.22 448.29,-1044.1 449.98,-1054.56 456.13,-1051.22"/>
</g>
<!-- 27 -->
<g id="node28" class="node">
<title>27</title>
<path fill="none" stroke="#56c9d8" stroke-width="2" d="M500.5,-1188C500.5,-1188 453.5,-1188 453.5,-1188 447.5,-1188 441.5,-1182 441.5,-1176 441.5,-1176 441.5,-1164 441.5,-1164 441.5,-1158 447.5,-1152 453.5,-1152 453.5,-1152 500.5,-1152 500.5,-1152 506.5,-1152 512.5,-1158 512.5,-1164 512.5,-1164 512.5,-1176 512.5,-1176 512.5,-1182 506.5,-1188 500.5,-1188"/>
<text text-anchor="middle" x="477" y="-1167.5" font-family="sans" font-size="10.00">pon_merge</text>
</g>
<!-- 27&#45;&gt;26 -->
<g id="edge63" class="edge">
<title>27&#45;&gt;26</title>
<path fill="none" stroke="grey" stroke-width="2" d="M477,-1151.7C477,-1143.98 477,-1134.71 477,-1126.11"/>
<polygon fill="grey" stroke="grey" stroke-width="2" points="480.5,-1126.1 477,-1116.1 473.5,-1126.1 480.5,-1126.1"/>
</g>
<!-- 28 -->
<g id="node29" class="node">
<title>28</title>
<path fill="none" stroke="#70d856" stroke-width="2" d="M494.5,-1260C494.5,-1260 459.5,-1260 459.5,-1260 453.5,-1260 447.5,-1254 447.5,-1248 447.5,-1248 447.5,-1236 447.5,-1236 447.5,-1230 453.5,-1224 459.5,-1224 459.5,-1224 494.5,-1224 494.5,-1224 500.5,-1224 506.5,-1230 506.5,-1236 506.5,-1236 506.5,-1248 506.5,-1248 506.5,-1254 500.5,-1260 494.5,-1260"/>
<text text-anchor="middle" x="477" y="-1239.5" font-family="sans" font-size="10.00">pon_sort</text>
</g>
<!-- 28&#45;&gt;27 -->
<g id="edge65" class="edge">
<title>28&#45;&gt;27</title>
<path fill="none" stroke="grey" stroke-width="2" d="M477,-1223.7C477,-1215.98 477,-1206.71 477,-1198.11"/>
<polygon fill="grey" stroke="grey" stroke-width="2" points="480.5,-1198.1 477,-1188.1 473.5,-1198.1 480.5,-1198.1"/>
</g>
<!-- 29 -->
<g id="node30" class="node">
<title>29</title>
<path fill="none" stroke="#ced856" stroke-width="2" d="M504.5,-1332C504.5,-1332 457.5,-1332 457.5,-1332 451.5,-1332 445.5,-1326 445.5,-1320 445.5,-1320 445.5,-1308 445.5,-1308 445.5,-1302 451.5,-1296 457.5,-1296 457.5,-1296 504.5,-1296 504.5,-1296 510.5,-1296 516.5,-1302 516.5,-1308 516.5,-1308 516.5,-1320 516.5,-1320 516.5,-1326 510.5,-1332 504.5,-1332"/>
<text text-anchor="middle" x="481" y="-1311.5" font-family="sans" font-size="10.00">pon_create</text>
</g>
<!-- 29&#45;&gt;28 -->
<g id="edge66" class="edge">
<title>29&#45;&gt;28</title>
<path fill="none" stroke="grey" stroke-width="2" d="M480.01,-1295.7C479.57,-1287.98 479.04,-1278.71 478.55,-1270.11"/>
<polygon fill="grey" stroke="grey" stroke-width="2" points="482.04,-1269.89 477.98,-1260.1 475.05,-1270.29 482.04,-1269.89"/>
</g>
<!-- 30 -->
<g id="node31" class="node">
<title>30</title>
<path fill="none" stroke="#5673d8" stroke-width="2" d="M523.5,-1404C523.5,-1404 448.5,-1404 448.5,-1404 442.5,-1404 436.5,-1398 436.5,-1392 436.5,-1392 436.5,-1380 436.5,-1380 436.5,-1374 442.5,-1368 448.5,-1368 448.5,-1368 523.5,-1368 523.5,-1368 529.5,-1368 535.5,-1374 535.5,-1380 535.5,-1380 535.5,-1392 535.5,-1392 535.5,-1398 529.5,-1404 523.5,-1404"/>
<text text-anchor="middle" x="486" y="-1383.5" font-family="sans" font-size="10.00">pon_genomicsdb</text>
</g>
<!-- 30&#45;&gt;29 -->
<g id="edge67" class="edge">
<title>30&#45;&gt;29</title>
<path fill="none" stroke="grey" stroke-width="2" d="M484.76,-1367.7C484.21,-1359.98 483.55,-1350.71 482.94,-1342.11"/>
<polygon fill="grey" stroke="grey" stroke-width="2" points="486.43,-1341.83 482.22,-1332.1 479.44,-1342.33 486.43,-1341.83"/>
</g>
<!-- 31&#45;&gt;30 -->
<g id="edge68" class="edge">
<title>31&#45;&gt;30</title>
<path fill="none" stroke="grey" stroke-width="2" d="M478.47,-1439.7C479.57,-1431.98 480.9,-1422.71 482.13,-1414.11"/>
<polygon fill="grey" stroke="grey" stroke-width="2" points="485.61,-1414.5 483.56,-1404.1 478.68,-1413.51 485.61,-1414.5"/>
</g>
<!-- 32&#45;&gt;25 -->
<g id="edge61" class="edge">
<title>32&#45;&gt;25</title>
<path fill="none" stroke="grey" stroke-width="2" d="M469.33,-1007.88C485.7,-998.64 506.08,-987.13 523.65,-977.21"/>
<polygon fill="grey" stroke="grey" stroke-width="2" points="525.56,-980.15 532.55,-972.19 522.12,-974.06 525.56,-980.15"/>
</g>
<!-- 33 -->
<g id="node34" class="node">
<title>33</title>
<path fill="none" stroke="#56d8a9" stroke-width="2" d="M693.5,-1260C693.5,-1260 536.5,-1260 536.5,-1260 530.5,-1260 524.5,-1254 524.5,-1248 524.5,-1248 524.5,-1236 524.5,-1236 524.5,-1230 530.5,-1224 536.5,-1224 536.5,-1224 693.5,-1224 693.5,-1224 699.5,-1224 705.5,-1230 705.5,-1236 705.5,-1236 705.5,-1248 705.5,-1248 705.5,-1254 699.5,-1260 693.5,-1260"/>
<text text-anchor="middle" x="615" y="-1239.5" font-family="sans" font-size="10.00">somatic_calculate_contamination</text>
</g>
<!-- 33&#45;&gt;25 -->
<g id="edge59" class="edge">
<title>33&#45;&gt;25</title>
<path fill="none" stroke="grey" stroke-width="2" d="M611.9,-1223.97C603.22,-1176.19 578.57,-1040.62 567.96,-982.27"/>
<polygon fill="grey" stroke="grey" stroke-width="2" points="571.38,-981.52 566.15,-972.31 564.49,-982.77 571.38,-981.52"/>
</g>
<!-- 34&#45;&gt;33 -->
<g id="edge72" class="edge">
<title>34&#45;&gt;33</title>
<path fill="none" stroke="grey" stroke-width="2" d="M619.6,-1439.85C618.73,-1402.83 616.69,-1315.18 615.64,-1270.39"/>
<polygon fill="grey" stroke="grey" stroke-width="2" points="619.14,-1270.15 615.4,-1260.23 612.14,-1270.31 619.14,-1270.15"/>
</g>
<!-- 35&#45;&gt;22 -->
<g id="edge55" class="edge">
<title>35&#45;&gt;22</title>
<path fill="none" stroke="grey" stroke-width="2" d="M533.13,-719.88C517.71,-710.72 498.52,-699.34 481.9,-689.48"/>
<polygon fill="grey" stroke="grey" stroke-width="2" points="483.36,-686.28 472.98,-684.19 479.79,-692.3 483.36,-686.28"/>
</g>
<!-- 36 -->
<g id="node37" class="node">
<title>36</title>
<path fill="none" stroke="#d8ac56" stroke-width="2" d="M720.5,-252C720.5,-252 609.5,-252 609.5,-252 603.5,-252 597.5,-246 597.5,-240 597.5,-240 597.5,-228 597.5,-228 597.5,-222 603.5,-216 609.5,-216 609.5,-216 720.5,-216 720.5,-216 726.5,-216 732.5,-222 732.5,-228 732.5,-228 732.5,-240 732.5,-240 732.5,-246 726.5,-252 720.5,-252"/>
<text text-anchor="middle" x="665" y="-231.5" font-family="sans" font-size="10.00">somatic_maf_aggregate</text>
</g>
<!-- 36&#45;&gt;20 -->
<g id="edge53" class="edge">
<title>36&#45;&gt;20</title>
<path fill="none" stroke="grey" stroke-width="2" d="M611.52,-215.97C585.58,-206.81 554.41,-194.42 528,-180 509.38,-169.84 465.57,-136.97 435.84,-114.16"/>
<polygon fill="grey" stroke="grey" stroke-width="2" points="437.92,-111.34 427.87,-108.02 433.66,-116.89 437.92,-111.34"/>
</g>
<!-- 37 -->
<g id="node38" class="node">
<title>37</title>
<path fill="none" stroke="#d87d56" stroke-width="2" d="M526,-396C526,-396 470,-396 470,-396 464,-396 458,-390 458,-384 458,-384 458,-372 458,-372 458,-366 464,-360 470,-360 470,-360 526,-360 526,-360 532,-360 538,-366 538,-372 538,-372 538,-384 538,-384 538,-390 532,-396 526,-396"/>
<text text-anchor="middle" x="498" y="-375.5" font-family="sans" font-size="10.00">somatic_maf</text>
</g>
<!-- 37&#45;&gt;36 -->
<g id="edge76" class="edge">
<title>37&#45;&gt;36</title>
<path fill="none" stroke="grey" stroke-width="2" d="M518.47,-359.86C530.81,-349.5 546.83,-336.02 561,-324 586.92,-302.01 616.33,-276.81 637.25,-258.86"/>
<polygon fill="grey" stroke="grey" stroke-width="2" points="639.8,-261.28 645.11,-252.11 635.24,-255.97 639.8,-261.28"/>
</g>
<!-- 44 -->
<g id="node45" class="node">
<title>44</title>
<path fill="none" stroke="#56a2d8" stroke-width="2" d="M540,-324C540,-324 456,-324 456,-324 450,-324 444,-318 444,-312 444,-312 444,-300 444,-300 444,-294 450,-288 456,-288 456,-288 540,-288 540,-288 546,-288 552,-294 552,-300 552,-300 552,-312 552,-312 552,-318 546,-324 540,-324"/>
<text text-anchor="middle" x="498" y="-303.5" font-family="sans" font-size="10.00">somatic_maf_civic</text>
</g>
<!-- 37&#45;&gt;44 -->
<g id="edge86" class="edge">
<title>37&#45;&gt;44</title>
<path fill="none" stroke="grey" stroke-width="2" d="M498,-359.7C498,-351.98 498,-342.71 498,-334.11"/>
<polygon fill="grey" stroke="grey" stroke-width="2" points="501.5,-334.1 498,-324.1 494.5,-334.1 501.5,-334.1"/>
</g>
<!-- 46 -->
<g id="node47" class="node">
<title>46</title>
<path fill="none" stroke="#56d873" stroke-width="2" d="M386.5,-324C386.5,-324 289.5,-324 289.5,-324 283.5,-324 277.5,-318 277.5,-312 277.5,-312 277.5,-300 277.5,-300 277.5,-294 283.5,-288 289.5,-288 289.5,-288 386.5,-288 386.5,-288 392.5,-288 398.5,-294 398.5,-300 398.5,-300 398.5,-312 398.5,-312 398.5,-318 392.5,-324 386.5,-324"/>
<text text-anchor="middle" x="338" y="-303.5" font-family="sans" font-size="10.00">somatic_maf_oncokb</text>
</g>
<!-- 37&#45;&gt;46 -->
<g id="edge88" class="edge">
<title>37&#45;&gt;46</title>
<path fill="none" stroke="grey" stroke-width="2" d="M458.86,-359.88C436.99,-350.31 409.54,-338.3 386.34,-328.15"/>
<polygon fill="grey" stroke="grey" stroke-width="2" points="387.58,-324.87 377.01,-324.07 384.77,-331.28 387.58,-324.87"/>
</g>
<!-- 38 -->
<g id="node39" class="node">
<title>38</title>
<path fill="none" stroke="#8fd856" stroke-width="2" d="M568,-540C568,-540 492,-540 492,-540 486,-540 480,-534 480,-528 480,-528 480,-516 480,-516 480,-510 486,-504 492,-504 492,-504 568,-504 568,-504 574,-504 580,-510 580,-516 580,-516 580,-528 580,-528 580,-534 574,-540 568,-540"/>
<text text-anchor="middle" x="530" y="-519.5" font-family="sans" font-size="10.00">somatic_vep_tab</text>
</g>
<!-- 38&#45;&gt;37 -->
<g id="edge78" class="edge">
<title>38&#45;&gt;37</title>
<path fill="none" stroke="grey" stroke-width="2" d="M526.14,-503.87C520.66,-479.56 510.58,-434.82 504.09,-406.01"/>
<polygon fill="grey" stroke="grey" stroke-width="2" points="507.49,-405.18 501.87,-396.19 500.66,-406.71 507.49,-405.18"/>
</g>
<!-- 39&#45;&gt;38 -->
<g id="edge79" class="edge">
<title>39&#45;&gt;38</title>
<path fill="none" stroke="grey" stroke-width="2" d="M465.26,-575.7C476.09,-566.88 489.42,-556.03 501.16,-546.47"/>
<polygon fill="grey" stroke="grey" stroke-width="2" points="503.44,-549.13 508.99,-540.1 499.02,-543.7 503.44,-549.13"/>
</g>
<!-- 41 -->
<g id="node42" class="node">
<title>41</title>
<path fill="none" stroke="#afd856" stroke-width="2" d="M449.5,-540C449.5,-540 374.5,-540 374.5,-540 368.5,-540 362.5,-534 362.5,-528 362.5,-528 362.5,-516 362.5,-516 362.5,-510 368.5,-504 374.5,-504 374.5,-504 449.5,-504 449.5,-504 455.5,-504 461.5,-510 461.5,-516 461.5,-516 461.5,-528 461.5,-528 461.5,-534 455.5,-540 449.5,-540"/>
<text text-anchor="middle" x="412" y="-519.5" font-family="sans" font-size="10.00">somatic_vep_vcf</text>
</g>
<!-- 39&#45;&gt;41 -->
<g id="edge82" class="edge">
<title>39&#45;&gt;41</title>
<path fill="none" stroke="grey" stroke-width="2" d="M436.09,-575.7C432.45,-567.73 428.05,-558.1 424.01,-549.26"/>
<polygon fill="grey" stroke="grey" stroke-width="2" points="427.16,-547.74 419.82,-540.1 420.79,-550.65 427.16,-547.74"/>
</g>
<!-- 40 -->
<g id="node41" class="node">
<title>40</title>
<path fill="none" stroke="#5663d8" stroke-width="2" d="M469.5,-468C469.5,-468 368.5,-468 368.5,-468 362.5,-468 356.5,-462 356.5,-456 356.5,-456 356.5,-444 356.5,-444 356.5,-438 362.5,-432 368.5,-432 368.5,-432 469.5,-432 469.5,-432 475.5,-432 481.5,-438 481.5,-444 481.5,-444 481.5,-456 481.5,-456 481.5,-462 475.5,-468 469.5,-468"/>
<text text-anchor="middle" x="419" y="-447.5" font-family="sans" font-size="10.00">somatic_vep_vcf2maf</text>
</g>
<!-- 40&#45;&gt;37 -->
<g id="edge77" class="edge">
<title>40&#45;&gt;37</title>
<path fill="none" stroke="grey" stroke-width="2" d="M438.53,-431.7C448.38,-422.97 460.49,-412.24 471.2,-402.75"/>
<polygon fill="grey" stroke="grey" stroke-width="2" points="473.53,-405.36 478.7,-396.1 468.89,-400.12 473.53,-405.36"/>
</g>
<!-- 41&#45;&gt;40 -->
<g id="edge81" class="edge">
<title>41&#45;&gt;40</title>
<path fill="none" stroke="grey" stroke-width="2" d="M413.73,-503.7C414.5,-495.98 415.43,-486.71 416.29,-478.11"/>
<polygon fill="grey" stroke="grey" stroke-width="2" points="419.78,-478.4 417.29,-468.1 412.81,-477.71 419.78,-478.4"/>
</g>
<!-- 42 -->
<g id="node43" class="node">
<title>42</title>
<path fill="none" stroke="#56d0d8" stroke-width="2" d="M426,-180C426,-180 314,-180 314,-180 308,-180 302,-174 302,-168 302,-168 302,-156 302,-156 302,-150 308,-144 314,-144 314,-144 426,-144 426,-144 432,-144 438,-150 438,-156 438,-156 438,-168 438,-168 438,-174 432,-180 426,-180"/>
<text text-anchor="middle" x="370" y="-159.5" font-family="sans" font-size="10.00">somatic_maf_union_ann</text>
</g>
<!-- 42&#45;&gt;20 -->
<g id="edge50" class="edge">
<title>42&#45;&gt;20</title>
<path fill="none" stroke="grey" stroke-width="2" d="M378.9,-143.7C383,-135.73 387.95,-126.1 392.49,-117.26"/>
<polygon fill="grey" stroke="grey" stroke-width="2" points="395.74,-118.6 397.2,-108.1 389.52,-115.4 395.74,-118.6"/>
</g>
<!-- 43 -->
<g id="node44" class="node">
<title>43</title>
<path fill="none" stroke="#56b1d8" stroke-width="2" d="M567.5,-252C567.5,-252 428.5,-252 428.5,-252 422.5,-252 416.5,-246 416.5,-240 416.5,-240 416.5,-228 416.5,-228 416.5,-222 422.5,-216 428.5,-216 428.5,-216 567.5,-216 567.5,-216 573.5,-216 579.5,-222 579.5,-228 579.5,-228 579.5,-240 579.5,-240 579.5,-246 573.5,-252 567.5,-252"/>
<text text-anchor="middle" x="498" y="-231.5" font-family="sans" font-size="10.00">somatic_maf_civic_aggregate</text>
</g>
<!-- 43&#45;&gt;20 -->
<g id="edge51" class="edge">
<title>43&#45;&gt;20</title>
<path fill="none" stroke="grey" stroke-width="2" d="M489.09,-215.85C479.4,-197.61 463.14,-168.13 447,-144 440.73,-134.62 433.32,-124.74 426.54,-116.08"/>
<polygon fill="grey" stroke="grey" stroke-width="2" points="429.25,-113.87 420.29,-108.22 423.77,-118.22 429.25,-113.87"/>
</g>
<!-- 43&#45;&gt;42 -->
<g id="edge84" class="edge">
<title>43&#45;&gt;42</title>
<path fill="none" stroke="grey" stroke-width="2" d="M466.69,-215.88C449.8,-206.64 428.75,-195.13 410.62,-185.21"/>
<polygon fill="grey" stroke="grey" stroke-width="2" points="411.89,-181.92 401.43,-180.19 408.53,-188.06 411.89,-181.92"/>
</g>
<!-- 44&#45;&gt;43 -->
<g id="edge85" class="edge">
<title>44&#45;&gt;43</title>
<path fill="none" stroke="grey" stroke-width="2" d="M498,-287.7C498,-279.98 498,-270.71 498,-262.11"/>
<polygon fill="grey" stroke="grey" stroke-width="2" points="501.5,-262.1 498,-252.1 494.5,-262.1 501.5,-262.1"/>
</g>
<!-- 45 -->
<g id="node46" class="node">
<title>45</title>
<path fill="none" stroke="#56d863" stroke-width="2" d="M386,-252C386,-252 234,-252 234,-252 228,-252 222,-246 222,-240 222,-240 222,-228 222,-228 222,-222 228,-216 234,-216 234,-216 386,-216 386,-216 392,-216 398,-222 398,-228 398,-228 398,-240 398,-240 398,-246 392,-252 386,-252"/>
<text text-anchor="middle" x="310" y="-231.5" font-family="sans" font-size="10.00">somatic_maf_oncokb_aggregate</text>
</g>
<!-- 45&#45;&gt;20 -->
<g id="edge49" class="edge">
<title>45&#45;&gt;20</title>
<path fill="none" stroke="grey" stroke-width="2" d="M299.98,-215.91C290.3,-196.92 278.99,-166.04 293,-144 301.71,-130.29 315.01,-120.07 329.45,-112.47"/>
<polygon fill="grey" stroke="grey" stroke-width="2" points="331.09,-115.56 338.57,-108.06 328.04,-109.26 331.09,-115.56"/>
</g>
<!-- 45&#45;&gt;42 -->
<g id="edge83" class="edge">
<title>45&#45;&gt;42</title>
<path fill="none" stroke="grey" stroke-width="2" d="M324.83,-215.7C332.02,-207.3 340.8,-197.07 348.69,-187.86"/>
<polygon fill="grey" stroke="grey" stroke-width="2" points="351.49,-189.97 355.34,-180.1 346.17,-185.42 351.49,-189.97"/>
</g>
<!-- 46&#45;&gt;45 -->
<g id="edge87" class="edge">
<title>46&#45;&gt;45</title>
<path fill="none" stroke="grey" stroke-width="2" d="M331.08,-287.7C327.93,-279.81 324.12,-270.3 320.62,-261.55"/>
<polygon fill="grey" stroke="grey" stroke-width="2" points="323.81,-260.09 316.84,-252.1 317.31,-262.69 323.81,-260.09"/>
</g>
<!-- 47 -->
<g id="node48" class="node">
<title>47</title>
<path fill="none" stroke="#56d8d8" stroke-width="2" d="M759.5,-180C759.5,-180 620.5,-180 620.5,-180 614.5,-180 608.5,-174 608.5,-168 608.5,-168 608.5,-156 608.5,-156 608.5,-150 614.5,-144 620.5,-144 620.5,-144 759.5,-144 759.5,-144 765.5,-144 771.5,-150 771.5,-156 771.5,-156 771.5,-168 771.5,-168 771.5,-174 765.5,-180 759.5,-180"/>
<text text-anchor="middle" x="690" y="-159.5" font-family="sans" font-size="10.00">somatic_cna_table_aggregate</text>
</g>
<!-- 47&#45;&gt;0 -->
<g id="edge18" class="edge">
<title>47&#45;&gt;0</title>
<path fill="none" stroke="grey" stroke-width="2" d="M730.29,-143.87C795.67,-116.07 923.92,-61.55 987.07,-34.7"/>
<polygon fill="grey" stroke="grey" stroke-width="2" points="988.8,-37.77 996.63,-30.64 986.06,-31.33 988.8,-37.77"/>
</g>
<!-- 48 -->
<g id="node49" class="node">
<title>48</title>
<path fill="none" stroke="#d87556" stroke-width="2" d="M1042.5,-468C1042.5,-468 925.5,-468 925.5,-468 919.5,-468 913.5,-462 913.5,-456 913.5,-456 913.5,-444 913.5,-444 913.5,-438 919.5,-432 925.5,-432 925.5,-432 1042.5,-432 1042.5,-432 1048.5,-432 1054.5,-438 1054.5,-444 1054.5,-444 1054.5,-456 1054.5,-456 1054.5,-462 1048.5,-468 1042.5,-468"/>
<text text-anchor="middle" x="984" y="-447.5" font-family="sans" font-size="10.00">somatic_cnv_process_vcf</text>
</g>
<!-- 48&#45;&gt;47 -->
<g id="edge89" class="edge">
<title>48&#45;&gt;47</title>
<path fill="none" stroke="grey" stroke-width="2" d="M952.51,-431.8C937.7,-422.6 920.57,-410.22 908,-396 848.1,-328.22 879.43,-277.4 813,-216 798.17,-202.3 779.25,-191.79 760.72,-183.89"/>
<polygon fill="grey" stroke="grey" stroke-width="2" points="761.97,-180.62 751.39,-180.11 759.34,-187.11 761.97,-180.62"/>
</g>
<!-- 52 -->
<g id="node53" class="node">
<title>52</title>
<path fill="none" stroke="#56d892" stroke-width="2" d="M1039.5,-396C1039.5,-396 928.5,-396 928.5,-396 922.5,-396 916.5,-390 916.5,-384 916.5,-384 916.5,-372 916.5,-372 916.5,-366 922.5,-360 928.5,-360 928.5,-360 1039.5,-360 1039.5,-360 1045.5,-360 1051.5,-366 1051.5,-372 1051.5,-372 1051.5,-384 1051.5,-384 1051.5,-390 1045.5,-396 1039.5,-396"/>
<text text-anchor="middle" x="984" y="-375.5" font-family="sans" font-size="10.00">somatic_cnv_gene_calls</text>
</g>
<!-- 48&#45;&gt;52 -->
<g id="edge95" class="edge">
<title>48&#45;&gt;52</title>
<path fill="none" stroke="grey" stroke-width="2" d="M984,-431.7C984,-423.98 984,-414.71 984,-406.11"/>
<polygon fill="grey" stroke="grey" stroke-width="2" points="987.5,-406.1 984,-396.1 980.5,-406.1 987.5,-406.1"/>
</g>
<!-- 60 -->
<g id="node61" class="node">
<title>60</title>
<path fill="none" stroke="#56d86b" stroke-width="2" d="M1390.5,-108C1390.5,-108 1255.5,-108 1255.5,-108 1249.5,-108 1243.5,-102 1243.5,-96 1243.5,-96 1243.5,-84 1243.5,-84 1243.5,-78 1249.5,-72 1255.5,-72 1255.5,-72 1390.5,-72 1390.5,-72 1396.5,-72 1402.5,-78 1402.5,-84 1402.5,-84 1402.5,-96 1402.5,-96 1402.5,-102 1396.5,-108 1390.5,-108"/>
<text text-anchor="middle" x="1323" y="-87.5" font-family="sans" font-size="10.00">somatic_cna_sum_aggregate</text>
</g>
<!-- 48&#45;&gt;60 -->
<g id="edge104" class="edge">
<title>48&#45;&gt;60</title>
<path fill="none" stroke="grey" stroke-width="2" d="M1045.5,-431.98C1106.38,-412.94 1199.95,-377.54 1267,-324 1329.31,-274.25 1348.95,-255.7 1374,-180 1379.03,-164.81 1379.98,-158.84 1374,-144 1369.65,-133.21 1361.94,-123.39 1353.81,-115.21"/>
<polygon fill="grey" stroke="grey" stroke-width="2" points="1356,-112.46 1346.3,-108.18 1351.21,-117.57 1356,-112.46"/>
</g>
<!-- 61 -->
<g id="node62" class="node">
<title>61</title>
<path fill="none" stroke="#56a9d8" stroke-width="2" d="M1429,-396C1429,-396 1275,-396 1275,-396 1269,-396 1263,-390 1263,-384 1263,-384 1263,-372 1263,-372 1263,-366 1269,-360 1275,-360 1275,-360 1429,-360 1429,-360 1435,-360 1441,-366 1441,-372 1441,-372 1441,-384 1441,-384 1441,-390 1435,-396 1429,-396"/>
<text text-anchor="middle" x="1352" y="-375.5" font-family="sans" font-size="10.00">somatic_cna_chr_arm_aggregate</text>
</g>
<!-- 48&#45;&gt;61 -->
<g id="edge105" class="edge">
<title>48&#45;&gt;61</title>
<path fill="none" stroke="grey" stroke-width="2" d="M1054.52,-435.59C1110.78,-424.88 1190.26,-409.76 1252.92,-397.85"/>
<polygon fill="grey" stroke="grey" stroke-width="2" points="1253.66,-401.27 1262.83,-395.96 1252.35,-394.39 1253.66,-401.27"/>
</g>
<!-- 49 -->
<g id="node50" class="node">
<title>49</title>
<path fill="none" stroke="#d8a456" stroke-width="2" d="M998,-540C998,-540 834,-540 834,-540 828,-540 822,-534 822,-528 822,-528 822,-516 822,-516 822,-510 828,-504 834,-504 834,-504 998,-504 998,-504 1004,-504 1010,-510 1010,-516 1010,-516 1010,-528 1010,-528 1010,-534 1004,-540 998,-540"/>
<text text-anchor="middle" x="916" y="-519.5" font-family="sans" font-size="10.00">somatic_cnv_facets_tumor_normal</text>
</g>
<!-- 49&#45;&gt;48 -->
<g id="edge90" class="edge">
<title>49&#45;&gt;48</title>
<path fill="none" stroke="grey" stroke-width="2" d="M932.81,-503.7C941.13,-495.14 951.31,-484.66 960.39,-475.3"/>
<polygon fill="grey" stroke="grey" stroke-width="2" points="962.93,-477.72 967.38,-468.1 957.91,-472.84 962.93,-477.72"/>
</g>
<!-- 64 -->
<g id="node65" class="node">
<title>64</title>
<path fill="none" stroke="#a7d856" stroke-width="2" d="M743,-108C743,-108 633,-108 633,-108 627,-108 621,-102 621,-96 621,-96 621,-84 621,-84 621,-78 627,-72 633,-72 633,-72 743,-72 743,-72 749,-72 755,-78 755,-84 755,-84 755,-96 755,-96 755,-102 749,-108 743,-108"/>
<text text-anchor="middle" x="688" y="-87.5" font-family="sans" font-size="10.00">somatic_ppy_aggregate</text>
</g>
<!-- 49&#45;&gt;64 -->
<g id="edge109" class="edge">
<title>49&#45;&gt;64</title>
<path fill="none" stroke="grey" stroke-width="2" d="M887.98,-503.94C853.36,-480.47 799,-434.74 799,-379 799,-379 799,-379 799,-305 799,-264.03 804.85,-244.06 775,-216 716.83,-161.31 649.48,-241.86 599,-180 588.88,-167.6 591.09,-157.91 599,-144 606.36,-131.04 618.29,-120.92 631.05,-113.16"/>
<polygon fill="grey" stroke="grey" stroke-width="2" points="632.96,-116.1 639.97,-108.15 629.53,-109.99 632.96,-116.1"/>
</g>
<!-- 50&#45;&gt;49 -->
<g id="edge91" class="edge">
<title>50&#45;&gt;49</title>
<path fill="none" stroke="grey" stroke-width="2" d="M916,-1439.95C916,-1413.29 916,-1360.11 916,-1315 916,-1315 916,-1315 916,-665 916,-625 916,-578.65 916,-550.08"/>
<polygon fill="grey" stroke="grey" stroke-width="2" points="919.5,-550.05 916,-540.05 912.5,-550.05 919.5,-550.05"/>
</g>
<!-- 51 -->
<g id="node52" class="node">
<title>51</title>
<path fill="none" stroke="#59d856" stroke-width="2" d="M944,-180C944,-180 802,-180 802,-180 796,-180 790,-174 790,-168 790,-168 790,-156 790,-156 790,-150 796,-144 802,-144 802,-144 944,-144 944,-144 950,-144 956,-150 956,-156 956,-156 956,-168 956,-168 956,-174 950,-180 944,-180"/>
<text text-anchor="middle" x="873" y="-159.5" font-family="sans" font-size="10.00">somatic_cna_filters_aggregate</text>
</g>
<!-- 51&#45;&gt;0 -->
<g id="edge12" class="edge">
<title>51&#45;&gt;0</title>
<path fill="none" stroke="grey" stroke-width="2" d="M891.21,-143.87C917.97,-118.71 968.01,-71.65 998.43,-43.04"/>
<polygon fill="grey" stroke="grey" stroke-width="2" points="1000.83,-45.59 1005.72,-36.19 996.04,-40.49 1000.83,-45.59"/>
</g>
<!-- 52&#45;&gt;51 -->
<g id="edge94" class="edge">
<title>52&#45;&gt;51</title>
<path fill="none" stroke="grey" stroke-width="2" d="M938.51,-359.87C922.27,-351.49 905.42,-339.75 895,-324 868.16,-283.46 867.49,-224.53 869.91,-190.35"/>
<polygon fill="grey" stroke="grey" stroke-width="2" points="873.42,-190.44 870.78,-180.18 866.45,-189.84 873.42,-190.44"/>
</g>
<!-- 53 -->
<g id="node54" class="node">
<title>53</title>
<path fill="none" stroke="#d8cb56" stroke-width="2" d="M1052.5,-324C1052.5,-324 915.5,-324 915.5,-324 909.5,-324 903.5,-318 903.5,-312 903.5,-312 903.5,-300 903.5,-300 903.5,-294 909.5,-288 915.5,-288 915.5,-288 1052.5,-288 1052.5,-288 1058.5,-288 1064.5,-294 1064.5,-300 1064.5,-300 1064.5,-312 1064.5,-312 1064.5,-318 1058.5,-324 1052.5,-324"/>
<text text-anchor="middle" x="984" y="-303.5" font-family="sans" font-size="10.00">somatic_cna_calls_aggregate</text>
</g>
<!-- 52&#45;&gt;53 -->
<g id="edge96" class="edge">
<title>52&#45;&gt;53</title>
<path fill="none" stroke="grey" stroke-width="2" d="M984,-359.7C984,-351.98 984,-342.71 984,-334.11"/>
<polygon fill="grey" stroke="grey" stroke-width="2" points="987.5,-334.1 984,-324.1 980.5,-334.1 987.5,-334.1"/>
</g>
<!-- 56 -->
<g id="node57" class="node">
<title>56</title>
<path fill="none" stroke="#9fd856" stroke-width="2" d="M1245.5,-324C1245.5,-324 1094.5,-324 1094.5,-324 1088.5,-324 1082.5,-318 1082.5,-312 1082.5,-312 1082.5,-300 1082.5,-300 1082.5,-294 1088.5,-288 1094.5,-288 1094.5,-288 1245.5,-288 1245.5,-288 1251.5,-288 1257.5,-294 1257.5,-300 1257.5,-300 1257.5,-312 1257.5,-312 1257.5,-318 1251.5,-324 1245.5,-324"/>
<text text-anchor="middle" x="1170" y="-303.5" font-family="sans" font-size="10.00">somatic_cnv_gene_calls_filtered</text>
</g>
<!-- 52&#45;&gt;56 -->
<g id="edge99" class="edge">
<title>52&#45;&gt;56</title>
<path fill="none" stroke="grey" stroke-width="2" d="M1029.5,-359.88C1055.38,-350.14 1087.97,-337.87 1115.24,-327.61"/>
<polygon fill="grey" stroke="grey" stroke-width="2" points="1116.52,-330.87 1124.65,-324.07 1114.06,-324.31 1116.52,-330.87"/>
</g>
<!-- 53&#45;&gt;0 -->
<g id="edge4" class="edge">
<title>53&#45;&gt;0</title>
<path fill="none" stroke="grey" stroke-width="2" d="M985.96,-287.58C989.33,-258.02 996.59,-196.15 1004,-144 1008.79,-110.3 1015.1,-71.63 1019.34,-46.33"/>
<polygon fill="grey" stroke="grey" stroke-width="2" points="1022.81,-46.8 1021.02,-36.36 1015.91,-45.64 1022.81,-46.8"/>
</g>
<!-- 54 -->
<g id="node55" class="node">
<title>54</title>
<path fill="none" stroke="#d88556" stroke-width="2" d="M1352.5,-180C1352.5,-180 1203.5,-180 1203.5,-180 1197.5,-180 1191.5,-174 1191.5,-168 1191.5,-168 1191.5,-156 1191.5,-156 1191.5,-150 1197.5,-144 1203.5,-144 1203.5,-144 1352.5,-144 1352.5,-144 1358.5,-144 1364.5,-150 1364.5,-156 1364.5,-156 1364.5,-168 1364.5,-168 1364.5,-174 1358.5,-180 1352.5,-180"/>
<text text-anchor="middle" x="1278" y="-159.5" font-family="sans" font-size="10.00">somatic_cna_oncokb_aggregate</text>
</g>
<!-- 54&#45;&gt;0 -->
<g id="edge1" class="edge">
<title>54&#45;&gt;0</title>
<path fill="none" stroke="grey" stroke-width="2" d="M1263.69,-143.64C1244.45,-120.68 1210.84,-81.94 1195,-72 1153.31,-45.84 1097.76,-31.76 1061.45,-24.83"/>
<polygon fill="grey" stroke="grey" stroke-width="2" points="1061.76,-21.33 1051.29,-22.98 1060.51,-28.22 1061.76,-21.33"/>
</g>
<!-- 59 -->
<g id="node60" class="node">
<title>59</title>
<path fill="none" stroke="#56d8b9" stroke-width="2" d="M1174,-108C1174,-108 1064,-108 1064,-108 1058,-108 1052,-102 1052,-96 1052,-96 1052,-84 1052,-84 1052,-78 1058,-72 1064,-72 1064,-72 1174,-72 1174,-72 1180,-72 1186,-78 1186,-84 1186,-84 1186,-96 1186,-96 1186,-102 1180,-108 1174,-108"/>
<text text-anchor="middle" x="1119" y="-87.5" font-family="sans" font-size="10.00">somatic_cna_union_ann</text>
</g>
<!-- 54&#45;&gt;59 -->
<g id="edge102" class="edge">
<title>54&#45;&gt;59</title>
<path fill="none" stroke="grey" stroke-width="2" d="M1239.1,-143.88C1217.37,-134.31 1190.1,-122.3 1167.04,-112.15"/>
<polygon fill="grey" stroke="grey" stroke-width="2" points="1168.33,-108.89 1157.77,-108.07 1165.51,-115.3 1168.33,-108.89"/>
</g>
<!-- 55 -->
<g id="node56" class="node">
<title>55</title>
<path fill="none" stroke="#d89556" stroke-width="2" d="M1298.5,-252C1298.5,-252 1203.5,-252 1203.5,-252 1197.5,-252 1191.5,-246 1191.5,-240 1191.5,-240 1191.5,-228 1191.5,-228 1191.5,-222 1197.5,-216 1203.5,-216 1203.5,-216 1298.5,-216 1298.5,-216 1304.5,-216 1310.5,-222 1310.5,-228 1310.5,-228 1310.5,-240 1310.5,-240 1310.5,-246 1304.5,-252 1298.5,-252"/>
<text text-anchor="middle" x="1251" y="-231.5" font-family="sans" font-size="10.00">somatic_cna_oncokb</text>
</g>
<!-- 55&#45;&gt;54 -->
<g id="edge97" class="edge">
<title>55&#45;&gt;54</title>
<path fill="none" stroke="grey" stroke-width="2" d="M1257.67,-215.7C1260.71,-207.81 1264.38,-198.3 1267.76,-189.55"/>
<polygon fill="grey" stroke="grey" stroke-width="2" points="1271.07,-190.69 1271.4,-180.1 1264.54,-188.17 1271.07,-190.69"/>
</g>
<!-- 56&#45;&gt;55 -->
<g id="edge98" class="edge">
<title>56&#45;&gt;55</title>
<path fill="none" stroke="grey" stroke-width="2" d="M1190.02,-287.7C1200.13,-278.97 1212.54,-268.24 1223.52,-258.75"/>
<polygon fill="grey" stroke="grey" stroke-width="2" points="1225.93,-261.29 1231.21,-252.1 1221.35,-255.99 1225.93,-261.29"/>
</g>
<!-- 58 -->
<g id="node59" class="node">
<title>58</title>
<path fill="none" stroke="#61d856" stroke-width="2" d="M1147,-252C1147,-252 1065,-252 1065,-252 1059,-252 1053,-246 1053,-240 1053,-240 1053,-228 1053,-228 1053,-222 1059,-216 1065,-216 1065,-216 1147,-216 1147,-216 1153,-216 1159,-222 1159,-228 1159,-228 1159,-240 1159,-240 1159,-246 1153,-252 1147,-252"/>
<text text-anchor="middle" x="1106" y="-231.5" font-family="sans" font-size="10.00">somatic_cna_civic</text>
</g>
<!-- 56&#45;&gt;58 -->
<g id="edge101" class="edge">
<title>56&#45;&gt;58</title>
<path fill="none" stroke="grey" stroke-width="2" d="M1154.18,-287.7C1146.43,-279.22 1136.96,-268.86 1128.48,-259.58"/>
<polygon fill="grey" stroke="grey" stroke-width="2" points="1130.97,-257.12 1121.64,-252.1 1125.8,-261.85 1130.97,-257.12"/>
</g>
<!-- 57 -->
<g id="node58" class="node">
<title>57</title>
<path fill="none" stroke="#68d856" stroke-width="2" d="M1161.5,-180C1161.5,-180 1024.5,-180 1024.5,-180 1018.5,-180 1012.5,-174 1012.5,-168 1012.5,-168 1012.5,-156 1012.5,-156 1012.5,-150 1018.5,-144 1024.5,-144 1024.5,-144 1161.5,-144 1161.5,-144 1167.5,-144 1173.5,-150 1173.5,-156 1173.5,-156 1173.5,-168 1173.5,-168 1173.5,-174 1167.5,-180 1161.5,-180"/>
<text text-anchor="middle" x="1093" y="-159.5" font-family="sans" font-size="10.00">somatic_cna_civic_aggregate</text>
</g>
<!-- 57&#45;&gt;0 -->
<g id="edge11" class="edge">
<title>57&#45;&gt;0</title>
<path fill="none" stroke="grey" stroke-width="2" d="M1072.14,-143.87C1061.86,-134.34 1050.17,-121.67 1043,-108 1032.93,-88.82 1028.2,-64.66 1025.97,-46.35"/>
<polygon fill="grey" stroke="grey" stroke-width="2" points="1029.45,-45.92 1024.93,-36.33 1022.49,-46.64 1029.45,-45.92"/>
</g>
<!-- 57&#45;&gt;59 -->
<g id="edge103" class="edge">
<title>57&#45;&gt;59</title>
<path fill="none" stroke="grey" stroke-width="2" d="M1099.43,-143.7C1102.36,-135.81 1105.89,-126.3 1109.14,-117.55"/>
<polygon fill="grey" stroke="grey" stroke-width="2" points="1112.45,-118.7 1112.65,-108.1 1105.88,-116.26 1112.45,-118.7"/>
</g>
<!-- 58&#45;&gt;57 -->
<g id="edge100" class="edge">
<title>58&#45;&gt;57</title>
<path fill="none" stroke="grey" stroke-width="2" d="M1102.79,-215.7C1101.35,-207.98 1099.63,-198.71 1098.04,-190.11"/>
<polygon fill="grey" stroke="grey" stroke-width="2" points="1101.44,-189.3 1096.18,-180.1 1094.56,-190.58 1101.44,-189.3"/>
</g>
<!-- 59&#45;&gt;0 -->
<g id="edge15" class="edge">
<title>59&#45;&gt;0</title>
<path fill="none" stroke="grey" stroke-width="2" d="M1095.52,-71.7C1083.44,-62.8 1068.55,-51.82 1055.48,-42.2"/>
<polygon fill="grey" stroke="grey" stroke-width="2" points="1057.34,-39.22 1047.21,-36.1 1053.19,-44.85 1057.34,-39.22"/>
</g>
<!-- 60&#45;&gt;0 -->
<g id="edge13" class="edge">
<title>60&#45;&gt;0</title>
<path fill="none" stroke="grey" stroke-width="2" d="M1250.24,-71.97C1190.33,-57.94 1107.87,-38.63 1060.83,-27.62"/>
<polygon fill="grey" stroke="grey" stroke-width="2" points="1061.61,-24.21 1051.07,-25.34 1060.01,-31.03 1061.61,-24.21"/>
</g>
<!-- 61&#45;&gt;0 -->
<g id="edge20" class="edge">
<title>61&#45;&gt;0</title>
<path fill="none" stroke="grey" stroke-width="2" d="M1369.14,-359.89C1392.38,-334.8 1431,-285.5 1431,-235 1431,-235 1431,-235 1431,-161 1431,-120.55 1441.65,-99.51 1412,-72 1361.59,-25.22 1148.53,-19.28 1061.39,-18.84"/>
<polygon fill="grey" stroke="grey" stroke-width="2" points="1061.17,-15.34 1051.16,-18.81 1061.15,-22.34 1061.17,-15.34"/>
</g>
<!-- 62 -->
<g id="node63" class="node">
<title>62</title>
<path fill="none" stroke="#568ad8" stroke-width="2" d="M1391,-1188C1391,-1188 1281,-1188 1281,-1188 1275,-1188 1269,-1182 1269,-1176 1269,-1176 1269,-1164 1269,-1164 1269,-1158 1275,-1152 1281,-1152 1281,-1152 1391,-1152 1391,-1152 1397,-1152 1403,-1158 1403,-1164 1403,-1164 1403,-1176 1403,-1176 1403,-1182 1397,-1188 1391,-1188"/>
<text text-anchor="middle" x="1336" y="-1167.5" font-family="sans" font-size="10.00">somatic_msi_aggregate</text>
</g>
<!-- 62&#45;&gt;0 -->
<g id="edge21" class="edge">
<title>62&#45;&gt;0</title>
<path fill="none" stroke="grey" stroke-width="2" d="M1369.56,-1151.93C1408.96,-1129.23 1469,-1085.1 1469,-1027 1469,-1027 1469,-1027 1469,-161 1469,-118.81 1469.02,-98.26 1436,-72 1378.45,-26.23 1151.15,-19.75 1061.06,-19.01"/>
<polygon fill="grey" stroke="grey" stroke-width="2" points="1061.05,-15.51 1051.03,-18.94 1061,-22.51 1061.05,-15.51"/>
</g>
<!-- 63&#45;&gt;62 -->
<g id="edge106" class="edge">
<title>63&#45;&gt;62</title>
<path fill="none" stroke="grey" stroke-width="2" d="M1122.52,-1439.97C1160.83,-1391.7 1270.28,-1253.8 1315.78,-1196.47"/>
<polygon fill="grey" stroke="grey" stroke-width="2" points="1318.79,-1198.32 1322.26,-1188.31 1313.31,-1193.96 1318.79,-1198.32"/>
</g>
<!-- 64&#45;&gt;0 -->
<g id="edge9" class="edge">
<title>64&#45;&gt;0</title>
<path fill="none" stroke="grey" stroke-width="2" d="M755.19,-75C824.78,-60.5 930.99,-38.38 986.79,-26.75"/>
<polygon fill="grey" stroke="grey" stroke-width="2" points="987.53,-30.17 996.6,-24.71 986.1,-23.32 987.53,-30.17"/>
</g>
</g>
</svg>
